{"title":"Dial.a.Prayer.2015.WEB-DL.XviD.MP3-RARBG","uid":11807683,"size":1129925324,"categoryP":"video","categoryS":"movies","magnet":"?xt=urn:btih:2f633c9a19448b571d101cfdaaec344d3ba49441&amp;dn=Dial.a.Prayer.2015.WEB-DL.XviD.MP3-RARBG&amp;tr=udp%3A%2F%2Ftracker.openbittorrent.com%3A80&amp;tr=udp%3A%2F%2Fopen.demonii.com%3A1337&amp;tr=udp%3A%2F%2Ftracker.coppersurfer.tk%3A6969&amp;tr=udp%3A%2F%2Fexodus.desync.com%3A6969","seeders":7,"leechers":1,"uploader":"vickey1992","files":5,"time":1428656998,"description":"\nFormat                                   : AVI\nFormat/Info                              : Audio Video Interleave\nFile size                                : 1.05 GiB\nDuration                                 : 1h 37mn\nOverall bit rate                         : 1 542 Kbps\nMovie name                               : RARBG.COM - Dial.a.Prayer.2015.WEB-DL.XviD.MP3-RARBG\nWriting library                          : VirtualDub build 35491/release\nComment                                  : RARBG.COM - Dial.a.Prayer.2015.WEB-DL.XviD.MP3-RARBG\n\nVideo\nID                                       : 0\nFormat                                   : MPEG-4 Visual\nFormat profile                           : Simple@L5\nFormat settings, BVOP                    : No\nFormat settings, QPel                    : No\nFormat settings, GMC                     : No warppoints\nFormat settings, Matrix                  : Default (H.263)\nCodec ID                                 : XVID\nCodec ID/Hint                            : XviD\nDuration                                 : 1h 37mn\nBit rate                                 : 1 337 Kbps\nWidth                                    : 720 pixels\nHeight                                   : 384 pixels\nDisplay aspect ratio                     : 1.85:1\nFrame rate                               : 23.976 fps\nColor space                              : YUV\nChroma subsampling                       : 4:2:0\nBit depth                                : 8 bits\nScan type                                : Progressive\nCompression mode                         : Lossy\nBits/(Pixel*Frame)                       : 0.202\nStream size                              : 933 MiB (87%)\nWriting library                          : Lavc56.13.100\n\nAudio\nID                                       : 1\nFormat                                   : MPEG Audio\nFormat version                           : Version 1\nFormat profile                           : Layer 3\nMode                                     : Joint stereo\nMode extension                           : MS Stereo\nCodec ID                                 : 55\nCodec ID/Hint                            : MP3\nDuration                                 : 1h 37mn\nBit rate mode                            : Constant\nBit rate                                 : 192 Kbps\nChannel(s)                               : 2 channels\nSampling rate                            : 48.0 KHz\nCompression mode                         : Lossy\nStream size                              : 134 MiB (12%)\nAlignment                                : Aligned on interleaves\nInterleave, duration                     : 24 ms (0.58 video frame)\nInterleave, preload duration             : 504 ms\nWriting library                          : LAME3.99.5\n\n\n\n\nNotes:\nGreetz to all!","torrent":{"xt":"urn:btih:2f633c9a19448b571d101cfdaaec344d3ba49441","amp;dn":"Dial.a.Prayer.2015.WEB-DL.XviD.MP3-RARBG","amp;tr":["udp%3A%2F%2Ftracker.openbittorrent.com%3A80","udp%3A%2F%2Fopen.demonii.com%3A1337","udp%3A%2F%2Ftracker.coppersurfer.tk%3A6969","udp%3A%2F%2Fexodus.desync.com%3A6969"],"infoHash":"2f633c9a19448b571d101cfdaaec344d3ba49441","infoHashBuffer":{"type":"Buffer","data":[47,99,60,154,25,68,139,87,29,16,28,253,170,236,52,77,59,164,148,65]},"announce":[],"urlList":[]}}